PathFileType  4	(X/Y/Z) C:\Users\antoi\Documents\MyRepositories\mobilecap\ResultsAnalysis
DataRate	CameraRate	NumFrames	NumMarkers	Units	OrigDataRate	OrigDataStartFrame	OrigNumFrames
100.0	100.0	4	51	mm	100.0	71	141
Frame#	Time	r_knee			r_shank_antsup			r_ankle			r_calc			r_5meta			r_toe			L_knee			L_shank_antsup			L_ankle			L_calc			L_5meta			L_toe			r_sh2			r_sh3			r_sh4			L_sh2			L_sh3			r_thigh1			r_thigh2			r_thigh3			r_thigh4			r_thigh5			L_thigh1			L_thigh2			L_thigh3			L_thigh4			r.ASIS			r.PSIS			L.ASIS			L.PSIS			C7			R_Shoulder			L_Shoulder			R_Sternum			L_Sternum			R_humerus			R_elbow_med			R_elbow_lat			R_forearm			R_wrist_radius			R_wrist_ulna			L_humerus			L_elbow_med			L_elbow_lat			L_forearm			L_wrist_radius			L_wrist_ulna			R_HJC			L_HJC			R_HJC_reg			L_HJC_reg			
		X1	Y1	Z1	X2	Y2	Z2	X3	Y3	Z3	X4	Y4	Z4	X5	Y5	Z5	X6	Y6	Z6	X7	Y7	Z7	X8	Y8	Z8	X9	Y9	Z9	X10	Y10	Z10	X11	Y11	Z11	X12	Y12	Z12	X13	Y13	Z13	X14	Y14	Z14	X15	Y15	Z15	X16	Y16	Z16	X17	Y17	Z17	X18	Y18	Z18	X19	Y19	Z19	X20	Y20	Z20	X21	Y21	Z21	X22	Y22	Z22	X23	Y23	Z23	X24	Y24	Z24	X25	Y25	Z25	X26	Y26	Z26	X27	Y27	Z27	X28	Y28	Z28	X29	Y29	Z29	X30	Y30	Z30	X31	Y31	Z31	X32	Y32	Z32	X33	Y33	Z33	X34	Y34	Z34	X35	Y35	Z35	X36	Y36	Z36	X37	Y37	Z37	X38	Y38	Z38	X39	Y39	Z39	X40	Y40	Z40	X41	Y41	Z41	X42	Y42	Z42	X43	Y43	Z43	X44	Y44	Z44	X45	Y45	Z45	X46	Y46	Z46	X47	Y47	Z47	X48	Y48	Z48	X49	Y49	Z49	X50	Y50	Z50	X51	Y51	Z51	

71	0.70000000	503.10063	456.96099	-114.93877	464.48028	357.62794	-126.33246	187.86820	189.77360	-140.05059	122.42059	209.48830	-192.33618	225.10083	69.75756	-94.99324	272.23531	65.70008	-147.45302	768.41658	503.65921	-383.62232	817.37515	422.87048	-370.99106	769.29157	96.03303	-380.30089	695.33540	51.19352	-335.33180	875.76722	40.08802	-415.66586	921.04140	67.11067	-357.35581	379.28678	282.18001	-132.14764	422.74177	402.97809	-83.09479	332.71200	332.30023	-84.53654	738.22425	432.97853	-415.42968	739.49467	312.66178	-424.96913	620.89803	717.87115	-72.47390	607.50897	609.64392	-96.76863	550.78370	587.00281	-67.81233	509.85786	722.06310	-48.08858	500.44198	611.72180	-81.75085	742.33382	757.54583	-389.27639	800.96272	632.04504	-365.65216	653.49123	708.66823	-434.17181	707.75319	589.53863	-405.55922	678.69262	917.40183	-95.28133	479.00121	963.75324	-184.02331	693.46807	936.89434	-352.62059	481.83094	964.86470	-278.74646	541.94196	1400.88461	-339.76586	642.07940	1418.71412	-181.38092	605.92027	1298.45594	-475.77180	663.41325	1327.29510	-300.96822	656.09344	1311.51731	-343.81125	697.22366	1300.57168	-112.55244	611.20354	1100.46992	-75.76669	645.05737	1122.77699	-22.04736	711.88515	1063.83876	-15.63493	769.54831	903.06148	-39.21242	751.23699	906.03806	7.58882	618.58994	1148.95546	-498.35584	544.46764	965.88040	-415.93425	540.35473	968.12587	-494.93640	578.92162	906.71585	-515.99734	614.66582	732.55663	-499.07728	568.55565	736.74683	-518.05842	595.89371	835.04159	-132.48110	606.35453	848.98447	-321.23866	605.38839	852.93300	-134.62262	610.48522	854.92417	-305.11828	
72	0.71000000	527.35538	455.48452	-114.75192	486.60054	357.24731	-125.96089	204.83753	199.24967	-141.13064	142.22054	224.03371	-194.98165	231.96615	76.36917	-96.23405	279.65419	68.72618	-147.56947	778.11899	503.89982	-384.70066	825.39882	421.88442	-371.64277	769.59083	95.95548	-380.53739	695.35066	51.16451	-335.41698	875.74341	40.09185	-415.84460	921.18159	66.85634	-357.42297	398.82080	284.57278	-132.04090	445.35713	404.12304	-83.62826	353.11593	336.45957	-85.43629	746.90275	433.70680	-416.64541	745.54235	313.37904	-426.07103	637.12463	719.58324	-73.58847	627.39039	610.86884	-97.07965	570.83700	586.69390	-68.76745	525.81459	720.68620	-50.68982	519.96154	609.73983	-83.13960	754.92437	758.24266	-389.92877	812.13119	632.11271	-366.28227	665.97973	710.48003	-435.71452	718.63488	590.64163	-407.13254	691.46974	919.78553	-96.78165	492.29599	965.04723	-184.37698	706.45907	939.33475	-354.26625	494.97095	967.20360	-279.55530	555.31018	1402.12529	-343.18614	655.43309	1421.18472	-184.90242	619.01546	1299.15463	-478.53344	676.76651	1328.98424	-303.84818	669.26100	1312.98999	-346.65541	710.31456	1303.30204	-115.48238	622.84491	1103.90375	-78.02067	657.13771	1126.01315	-24.30430	723.43832	1066.37298	-18.23441	778.98396	904.71452	-41.57438	761.23581	908.15902	5.44320	631.99374	1149.65570	-500.66671	559.01430	966.72576	-416.95661	554.31248	968.64566	-495.97603	592.66534	907.24384	-517.18338	628.78203	733.22271	-500.19539	582.55375	737.37337	-518.62242	609.40906	837.01876	-133.77832	619.45352	851.32032	-322.53479	619.19226	853.60153	-136.79082	623.98458	857.46361	-307.38616	
73	0.72000000	551.81353	454.39559	-114.20315	509.54177	357.25305	-125.48990	223.14277	208.57658	-142.68852	163.56493	237.54374	-198.25118	240.93733	83.77172	-97.57730	289.27490	72.77140	-147.62437	786.84546	503.74376	-385.69295	832.62276	420.65938	-372.17341	769.90417	95.87557	-380.69130	695.38784	51.16260	-335.47555	875.74004	40.07538	-415.96949	921.31587	66.63048	-357.44990	419.47809	287.22968	-131.99848	468.57158	405.46058	-84.10522	374.48328	340.62389	-86.35955	754.76168	434.00804	-417.69121	751.03615	313.67513	-426.95744	653.26207	721.60376	-74.51606	647.28809	612.47876	-96.95869	590.83266	586.83572	-69.35707	541.68498	719.66053	-53.25418	539.60883	608.35388	-84.14721	766.85723	758.45945	-390.77017	822.40076	631.62009	-367.06038	677.62304	711.92894	-437.15441	728.45448	591.33158	-408.51988	704.01257	922.31862	-98.32173	505.19768	966.37392	-185.10224	719.12752	941.57299	-355.94682	507.91627	969.35569	-280.64109	568.41517	1403.59021	-346.32725	668.26398	1423.79924	-188.05014	632.13766	1300.26451	-481.07028	689.89225	1330.89132	-306.34367	682.26593	1314.70418	-349.12649	723.03336	1306.20160	-118.15799	634.11277	1107.49238	-79.87822	668.95687	1129.36921	-26.29736	734.74799	1069.07226	-20.63158	788.26725	906.60036	-43.77234	771.03008	910.46263	3.45476	645.43086	1150.77116	-502.83937	573.46065	968.00479	-418.04155	568.29832	969.58109	-497.03189	606.54233	908.20097	-518.34132	643.19171	734.38978	-501.25792	596.87044	738.43740	-519.19985	622.60902	839.09924	-135.07445	632.34230	853.46235	-323.84425	632.52250	854.48437	-139.01879	637.37228	859.81353	-309.66942	
74	0.73000000	576.24220	453.81945	-113.37297	533.02905	357.68753	-124.95065	242.60952	217.44738	-144.76803	185.99011	249.37782	-202.15102	252.53075	91.65436	-98.91227	301.63531	77.73425	-147.54605	794.62527	503.32824	-386.62117	839.01808	419.31441	-372.69051	770.20666	95.78009	-380.75413	695.44729	51.20018	-335.51205	875.75504	40.02384	-416.06302	921.44196	66.40230	-357.45740	441.04081	290.11451	-132.05844	492.17668	407.08881	-84.55934	396.60693	344.80023	-87.35654	761.67403	433.99328	-418.58695	755.83288	313.66677	-427.63866	669.27416	723.94932	-75.28576	667.02331	614.50648	-96.47671	610.61797	587.50424	-69.57578	557.45352	719.05814	-55.75410	559.23917	607.70847	-84.75221	778.12409	758.36041	-391.78249	831.78598	630.74010	-367.99258	688.42630	713.13207	-438.49024	737.31784	591.76617	-409.74616	716.33828	924.92998	-99.93179	517.69789	967.78146	-186.27522	731.54375	943.55790	-357.60258	520.67237	971.33622	-282.03258	581.26974	1405.26374	-349.19679	680.59790	1426.48401	-190.79983	645.31515	1301.72367	-483.39090	702.77183	1332.97689	-308.47736	695.11279	1316.62424	-351.24787	735.32870	1309.17214	-120.48900	645.02643	1111.09873	-81.32239	680.48510	1132.74832	-28.00434	745.80456	1071.85284	-22.76924	797.41831	908.65170	-45.77355	780.67603	912.88127	1.66120	658.92112	1152.22425	-504.85753	587.77219	969.63038	-419.20327	582.31068	970.85790	-498.13013	620.58322	909.52215	-519.48169	657.91518	735.98328	-502.24551	611.50660	739.86337	-519.79831	635.44683	841.25751	-136.39083	645.02917	855.39191	-325.18543	645.35419	855.62226	-141.30210	650.64756	861.96320	-311.91383	
